HIERARCHY
ROOT hip
{
	OFFSET	0.00  0.00  0.00 
	CHANNELS 6 Xposition Yposition Zposition Xrotation Zrotation Yrotation
	JOINT abdomen
	{
		OFFSET	0.000000 0.000000 0.000000
		CHANNELS 3 Xrotation Zrotation Yrotation
		JOINT chest
		{
			OFFSET	0.000000 5.018152 -1.882228
			CHANNELS 3 Xrotation Zrotation Yrotation
			JOINT neckDummy
			{
				OFFSET	0.000000 8.316447 0.784897
				CHANNELS 3 Xrotation Yrotation Zrotation
				JOINT neck
				{
					OFFSET	0.000000 2.280413 -0.392801
					CHANNELS 3 Xrotation Zrotation Yrotation
					JOINT head
					{
						OFFSET	0.000000 3.496879 0.529469
						CHANNELS 3 Xrotation Zrotation Yrotation
						JOINT figureHair
						{
							OFFSET	0.000000 4.699570 0.720622
							CHANNELS 3 Zrotation Yrotation Xrotation
							End Site
							{
								OFFSET 0.000000 -6.419331 0.000000
							}
						}
					}
				}
			}
			JOINT lCollar
			{
				OFFSET	0.599237 8.316447 0.784897
				CHANNELS 3 Yrotation Zrotation Xrotation
				JOINT lShldr
				{
					OFFSET	6.421198 0.010146 -0.332128
					CHANNELS 3 Zrotation Yrotation Xrotation
					JOINT lForeArm
					{
						OFFSET	10.552783 0.025574 0.125508
						CHANNELS 3 Yrotation Zrotation Xrotation
						JOINT lHand
						{
							OFFSET	11.035963 0.319619 0.041520
							CHANNELS 3 Zrotation Yrotation Xrotation
							End Site
							{
								OFFSET 10.353753 0.000000 0.000000
							}
						}
					}
				}
			}
			JOINT rCollar
			{
				OFFSET	-0.599237 8.316447 0.784897
				CHANNELS 3 Yrotation Zrotation Xrotation
				JOINT rShldr
				{
					OFFSET	-6.421198 0.010146 -0.332128
					CHANNELS 3 Zrotation Yrotation Xrotation
					JOINT rForeArm
					{
						OFFSET	-10.552783 0.025574 0.125508
						CHANNELS 3 Yrotation Zrotation Xrotation
						JOINT rHand
						{
							OFFSET	-11.035963 0.319619 0.041520
							CHANNELS 3 Zrotation Yrotation Xrotation
							End Site
							{
								OFFSET -10.353753 0.000000 0.000000
							}
						}
					}
				}
			}
		}
	}
	JOINT lThigh
	{
		OFFSET	4.500466 -6.400484 -1.832696
		CHANNELS 3 Xrotation Zrotation Yrotation
		JOINT lShin
		{
			OFFSET	-1.359117 -18.918689 1.179887
			CHANNELS 3 Xrotation Zrotation Yrotation
			JOINT lFoot
			{
				OFFSET	-0.652380 -17.215186 -0.312137
				CHANNELS 3 Xrotation Yrotation Zrotation
				End Site
				{
					OFFSET 0.000000 0.000000 10.353752
				}
			}
		}
	}
	JOINT rThigh
	{
		OFFSET	-4.500466 -6.400484 -1.832696
		CHANNELS 3 Xrotation Zrotation Yrotation
		JOINT rShin
		{
			OFFSET	1.359117 -18.918689 1.179887
			CHANNELS 3 Xrotation Zrotation Yrotation
			JOINT rFoot
			{
				OFFSET	0.652380 -17.215186 -0.312137
				CHANNELS 3 Xrotation Yrotation Zrotation
				End Site
				{
					OFFSET 0.000000 0.000000 10.353752
				}
			}
		}
	}
}
MOTION
Frames:     6
Frame Time: 0.040000
0.000000 42.014908 0.240040 0.000000 0.000000 0.000000 1.171670 -0.020302 -0.007853 0.000000 0.000000 0.000000 0.000000 0.000000 0.000000 0.000000 0.000000 0.000000 0.000000 0.000000 0.000000 0.000000 0.000000 0.000000 2.021920 -5.690310 -0.063351 -70.100700 9.978770 15.991600 -22.515600 -9.303740 0.147736 5.969490 -0.173112 0.175734 -2.021920 5.690310 -0.063351 70.100700 -9.978770 15.991600 22.515600 9.303740 0.147736 -5.969490 0.173112 0.175734 -7.548710 4.016630 0.126881 15.890400 -3.336120 -0.813312 -8.628910 1.044380 -0.888102 -7.530620 -4.334310 0.100752 15.830200 3.319340 0.622262 -8.660610 -1.559430 0.936809 
0.000000 42.035347 0.240040 -0.424057 -0.019754 -0.003020 2.754948 0.061495 0.012697 2.044390 0.002901 -0.032300 0.000000 0.000000 0.000000 -1.626968 0.969092 -0.587601 -1.921205 0.662704 -0.199017 0.000000 0.000000 0.000000 2.021920 -5.690310 -0.063351 -69.029663 3.902143 15.956677 -23.551090 -8.928368 0.009049 5.907379 -0.165070 0.175406 -2.021920 5.690310 -0.063351 69.525375 -4.962385 15.641785 22.940474 8.755722 0.073062 -5.985339 0.214404 0.174834 -7.143551 4.069530 0.131450 15.890400 -3.336120 -0.813312 -8.628910 1.044380 -0.888102 -7.070202 -4.363029 0.087293 15.830200 3.319340 0.622262 -8.660610 -1.559430 0.936809 
0.000000 42.083504 0.240040 -1.423023 -0.066290 -0.010134 6.484728 0.254187 0.061108 4.625122 0.001710 -0.072284 0.000000 0.000000 0.000000 -4.405267 2.255197 -1.418609 -5.287110 1.568702 -0.498382 0.000000 0.000000 0.000000 2.021920 -5.690310 -0.063351 -67.683556 -3.757768 15.919411 -25.104044 -8.308640 -0.209033 5.837517 -0.156024 0.175037 -2.021920 5.690310 -0.063351 68.813873 1.434889 15.217847 23.653721 7.872146 -0.058259 -6.003166 0.260848 0.173821 -6.189104 4.194146 0.142213 15.890400 -3.336120 -0.813312 -8.628910 1.044380 -0.888102 -5.985580 -4.430685 0.055587 15.830200 3.319340 0.622262 -8.660610 -1.559430 0.936809 
0.000000 42.154312 0.240040 -2.891880 -0.134716 -0.020594 11.968910 0.537517 0.132289 7.408501 -0.001434 -0.115106 0.000000 0.000000 0.000000 -7.680426 3.666255 -2.349117 -9.279217 2.572438 -0.839751 0.000000 0.000000 0.000000 2.021920 -5.690310 -0.063351 -66.234016 -12.014989 15.881827 -26.873043 -7.584404 -0.460705 5.767718 -0.146987 0.174669 -2.021920 5.690310 -0.063351 68.046333 8.446930 14.765480 24.530678 6.801116 -0.222237 -6.020975 0.307248 0.172810 -4.785708 4.377379 0.158040 15.890400 -3.336120 -0.813312 -8.628910 1.044380 -0.888102 -4.390778 -4.530163 0.008967 15.830200 3.319340 0.622262 -8.660610 -1.559430 0.936809 
0.000000 42.233765 0.240040 -4.540084 -0.211496 -0.032331 18.122715 0.855442 0.212162 10.173718 -0.001401 -0.158161 0.000000 0.000000 0.000000 -10.466189 5.027129 -3.215699 -12.637699 3.524511 -1.147750 0.000000 0.000000 0.000000 2.021920 -5.690310 -0.063351 -64.790085 -20.225420 15.840056 -28.470661 -6.959750 -0.682767 5.698045 -0.137965 0.174301 -2.021920 5.690310 -0.063351 67.260841 15.571854 14.300237 25.378515 5.759432 -0.379751 -6.038752 0.353566 0.171800 -3.210958 4.582986 0.175798 15.890400 -3.336120 -0.813312 -8.628910 1.044380 -0.888102 -2.601250 -4.641789 -0.043344 15.830200 3.319340 0.622262 -8.660610 -1.559430 0.936809 
0.000000 42.307854 0.240040 -6.077092 -0.283096 -0.043276 23.861351 1.151918 0.286647 12.699964 0.006939 -0.198848 0.000000 0.000000 0.000000 -11.776303 6.162682 -3.854928 -14.102731 4.275517 -1.347005 0.000000 0.000000 0.000000 2.021920 -5.690310 -0.063351 -63.460808 -27.744967 15.790225 -29.509476 -6.638770 -0.812017 5.628559 -0.128968 0.173934 -2.021920 5.690310 -0.063351 66.495476 22.307775 13.837671 26.004402 4.963895 -0.491681 -6.056481 0.399759 0.170793 -1.742447 4.774721 0.192359 15.890400 -3.336120 -0.813312 -8.628910 1.044380 -0.888102 -0.932451 -4.745883 -0.092127 15.830200 3.319340 0.622262 -8.660610 -1.559430 0.936809 
